<svg width="21" height="20" viewBox="0 0 21 20" fill="none" xmlns="http://www.w3.org/2000/svg">
  <path
    d="M16.3333 5.83333V3.33333C16.3333 3.11232 16.2455 2.90036 16.0893 2.74408C15.933 2.5878 15.721 2.5 15.5 2.5H4.66667C4.22464 2.5 3.80072 2.67559 3.48816 2.98816C3.17559 3.30072 3 3.72464 3 4.16667C3 4.60869 3.17559 5.03262 3.48816 5.34518C3.80072 5.65774 4.22464 5.83333 4.66667 5.83333H17.1667C17.3877 5.83333 17.5996 5.92113 17.7559 6.07741C17.9122 6.23369 18 6.44565 18 6.66667V10M18 10H15.5C15.058 10 14.634 10.1756 14.3215 10.4882C14.0089 10.8007 13.8333 11.2246 13.8333 11.6667C13.8333 12.1087 14.0089 12.5326 14.3215 12.8452C14.634 13.1577 15.058 13.3333 15.5 13.3333H18C18.221 13.3333 18.433 13.2455 18.5893 13.0893C18.7455 12.933 18.8333 12.721 18.8333 12.5V10.8333C18.8333 10.6123 18.7455 10.4004 18.5893 10.2441C18.433 10.0878 18.221 10 18 10Z"
    stroke="currentColor"
    stroke-width="2"
    stroke-linecap="round"
    stroke-linejoin="round"
  />
  <path
    d="M3 4.16663V15.8333C3 16.2753 3.17559 16.6992 3.48816 17.0118C3.80072 17.3244 4.22464 17.5 4.66667 17.5H17.1667C17.3877 17.5 17.5996 17.4122 17.7559 17.2559C17.9122 17.0996 18 16.8876 18 16.6666V13.3333"
    stroke="currentColor"
    stroke-width="2"
    stroke-linecap="round"
    stroke-linejoin="round"
  />
</svg>
